<svg width="852" height="770" viewBox="0 0 852 770" fill="none" xmlns="http://www.w3.org/2000/svg">
<g style="mix-blend-mode:color-dodge">
<path fill-rule="evenodd" clip-rule="evenodd" d="M814.478 2.80343C810.232 4.34727 798.943 8.68933 789.391 12.4524C779.838 16.2156 769.61 20.3646 766.715 21.619C763.821 22.9699 757.742 25.2856 753.207 26.8295C748.672 28.3733 739.602 31.654 732.944 34.1627C731.525 34.6767 729.918 35.2608 728.203 35.8841C721.869 38.1864 714.06 41.0245 708.821 42.8468C703.386 44.7375 690.232 49.2007 677.08 53.6637C674.122 54.6672 671.165 55.6707 668.295 56.6449C652.664 61.9519 632.691 68.5132 623.91 71.3114C619.021 72.8695 613.025 74.7567 607.571 76.4732C603.23 77.8394 599.233 79.0975 596.41 79.9955C590.042 81.9254 579.814 85.1095 573.735 87.0393C567.656 88.8726 559.648 91.2849 555.884 92.3463C553.754 92.9472 550.201 93.9811 546.363 95.0978C543.422 95.9536 540.314 96.8579 537.551 97.6532C531.183 99.5831 522.499 101.995 518.253 103.153C514.008 104.311 507.929 106.144 504.745 107.109C501.56 108.074 492.876 110.39 485.447 112.32C473.964 115.311 471.262 116.372 467.596 119.46C465.184 121.39 459.105 126.118 454.087 129.784C449.07 133.548 441.929 138.565 438.166 140.881C434.403 143.293 426.395 148.118 420.316 151.591C414.237 155.065 403.816 160.661 397.158 164.038C390.5 167.319 378.535 173.109 370.623 176.872C362.615 180.635 350.457 186.714 343.606 190.38C336.755 193.95 329.325 198.292 327.106 199.933C324.887 201.67 321.124 205.433 318.808 208.327C316.396 211.222 312.922 216.433 311.089 219.906C309.256 223.38 306.361 229.845 304.72 234.38C303.08 238.915 300.861 246.248 299.703 250.783C298.545 255.318 296.808 264.871 295.65 272.011C294.203 281.563 293.624 290.923 293.431 307.23C293.238 323.826 293.624 333.282 294.975 344.861L294.975 344.864C295.94 353.354 296.905 361.844 297.291 363.677C297.517 365.109 298.038 367.955 298.531 370.65C298.669 371.404 298.804 372.147 298.931 372.843C299.51 376.027 301.633 384.711 303.563 392.141C305.589 399.571 309.159 410.86 311.475 417.229C313.887 423.597 317.264 431.606 319.001 435.079C320.738 438.553 323.826 444.342 325.948 448.105C328.071 451.869 329.422 455.246 328.94 455.632C328.554 456.114 318.422 456.693 306.457 456.983C287.449 457.465 283.3 457.272 273.168 455.535C266.8 454.474 256.861 451.965 250.975 450.035C245.09 448.105 236.695 444.535 232.16 442.123C227.625 439.711 221.353 435.851 218.169 433.632C214.985 431.316 209.967 427.167 206.976 424.369C203.985 421.474 199.546 416.65 197.134 413.562C194.625 410.571 190.476 403.624 187.871 398.124C185.362 392.72 182.564 385.869 181.696 382.975C180.827 380.08 179.476 375.255 178.801 372.361C178.029 369.466 176.871 363.773 176.292 359.817C175.713 355.861 174.748 350.747 174.266 348.431C173.687 346.212 172.818 336.659 172.239 327.3C171.468 314.177 171.468 308.291 172.336 302.405C173.011 298.16 174.652 291.888 176.003 288.414C177.353 284.941 180.248 279.151 182.371 275.388C184.783 271.432 190.09 264.967 195.494 259.467C200.511 254.353 207.651 248.274 211.415 245.862C215.178 243.45 222.511 239.108 227.818 236.31C233.125 233.511 241.423 228.88 246.151 226.178C250.879 223.38 261.782 217.494 270.273 212.959C278.765 208.424 306.361 194.24 331.545 181.503C356.729 168.863 382.395 155.74 388.474 152.363C394.553 149.083 402.851 144.354 406.807 141.942C410.763 139.53 415.877 136.249 418.096 134.609C420.316 132.969 422.342 131.039 422.631 130.363C423.114 129.495 422.149 129.302 419.158 129.591C416.842 129.784 411.535 130.653 407.29 131.618C405.492 131.985 403.523 132.405 401.687 132.796C399.186 133.328 396.935 133.807 395.711 134.03C393.588 134.416 386.641 135.863 380.272 137.214C373.904 138.565 363.29 140.591 356.632 141.653C349.974 142.811 341.966 144.162 338.782 144.644C335.597 145.223 325.369 146.477 316.106 147.442C306.747 148.407 293.238 149.083 285.712 148.986C276.449 148.89 269.791 148.214 264.484 147.056C259.756 145.898 255.125 144.065 252.423 142.328C249.239 140.109 247.695 138.179 246.633 135.284C245.476 131.907 245.379 130.267 246.344 126.6C246.923 123.995 248.177 119.364 249.046 116.179C250.3 111.548 250.59 107.978 250.107 98.8111C249.818 92.4428 249.142 83.7587 248.66 79.5131C248.081 75.2675 246.923 69.1887 246.151 66.0045C245.379 62.8203 243.739 57.7063 242.484 54.6186C241.326 51.531 239.976 49.2152 239.397 49.4082C238.818 49.6012 237.66 52.7853 236.695 56.452C235.73 60.1186 232.739 67.3553 230.134 72.5658C227.528 77.6798 222.993 85.4955 220.002 89.934C217.107 94.2761 213.537 99.3901 212.09 101.32C210.643 103.25 208.134 106.241 206.59 108.074C205.046 109.811 201.283 113.574 198.388 116.469C195.494 119.267 190.476 123.32 187.292 125.346C183.336 127.951 177.836 130.17 169.924 132.486C163.555 134.319 152.941 137.793 146.284 140.205C139.626 142.521 131.328 145.609 127.758 146.96C124.091 148.311 115.889 152.074 109.424 155.354C102.863 158.539 94.5649 163.267 90.8018 165.679C87.1352 168.188 81.4423 172.819 78.1616 176.003C74.8809 179.187 71.0213 184.205 69.4775 187.1C67.1617 191.538 66.7758 193.564 66.7758 199.643C66.8722 205.433 67.3547 207.845 69.2845 211.705C70.6354 214.406 74.2055 219.231 77.1967 222.608C80.3809 226.082 82.4072 229.169 82.1177 230.038C81.8282 230.81 81.0563 231.485 80.4774 231.485C79.8019 231.485 77.1002 232.546 74.3985 233.994C71.7932 235.441 67.6442 238.046 65.2319 239.88C62.8197 241.713 56.5478 247.406 51.3373 252.52C46.0304 257.634 38.2147 266.222 33.9691 271.528C29.6271 276.835 24.8025 283.107 23.1622 285.52C21.4254 287.932 18.0482 292.853 15.636 296.616C13.1272 300.379 8.78518 307.905 5.98696 313.502C3.18875 319.098 0.583512 325.081 0.197552 326.817C-0.0919189 328.458 -0.0919189 329.905 0.390532 329.905C0.776492 329.905 4.15365 327.01 7.82027 323.537C11.4869 320.063 18.7237 314.467 23.7412 311.089C28.7586 307.809 36.1884 303.467 40.1445 301.44C44.1006 299.414 51.8198 296.326 57.3197 294.59C63.3986 292.563 69.0915 291.309 72.2757 291.309C75.5564 291.309 78.7405 291.984 81.5388 293.432C83.951 294.686 86.1703 296.326 86.5562 297.098C86.9422 297.87 88.0036 306.554 88.872 316.396C89.7404 326.238 90.8983 336.177 91.3807 338.589C91.63 340.147 92.2815 343.676 93.0236 347.695C93.4308 349.901 93.8652 352.254 94.2755 354.51C95.3368 360.878 97.8456 371.492 99.6789 378.15C101.512 384.808 103.924 392.817 104.889 396.001C105.951 399.185 108.267 405.553 110.1 410.281C111.933 414.913 115.31 422.439 117.626 427.167C119.942 431.799 123.03 437.781 124.573 440.386C126.117 443.088 129.301 448.009 131.617 451.483C131.875 451.854 132.139 452.234 132.407 452.621C134.651 455.855 137.175 459.494 138.468 461.132C139.819 462.965 143.775 467.789 147.345 471.746C150.915 475.702 157.187 481.877 161.433 485.544C165.582 489.114 172.915 494.71 177.643 497.894C182.371 501.175 191.538 506.289 197.906 509.473C204.274 512.561 213.151 516.421 217.686 517.964C222.221 519.508 229.169 521.631 233.125 522.692C237.081 523.754 245.09 525.587 250.975 526.648C256.861 527.71 266.993 529.157 273.651 529.64C280.308 530.219 294.589 530.701 305.492 530.605C311.454 530.552 319.78 530.499 328.106 530.446C335.009 530.403 341.911 530.359 347.466 530.315L369.562 530.122C378.439 542.859 384.518 550.867 388.86 556.174C393.105 561.481 398.798 568.236 401.404 571.13C403.912 574.025 412.596 583.095 420.702 591.297C428.71 599.499 439.903 610.305 445.5 615.419C451.096 620.533 459.298 627.77 463.833 631.63C468.271 635.489 473.578 639.831 475.605 641.279C477.631 642.726 481.683 645.91 484.482 648.323C487.28 650.735 492.297 654.691 495.674 657.103C499.052 659.515 507.736 665.401 514.876 670.226C522.016 675.05 530.025 680.164 532.534 681.708C533.553 682.335 535.065 683.249 536.774 684.281C539.272 685.79 542.189 687.552 544.595 689.041C548.648 691.55 560.033 698.111 569.875 703.611C579.717 709.208 593.805 716.734 601.235 720.497C608.664 724.164 619.568 729.181 625.357 731.69C631.147 734.199 636.84 736.611 637.901 736.997C638.962 737.479 641.761 738.541 644.173 739.313L644.53 739.427C646.873 740.177 649.642 741.064 650.927 741.339C652.047 741.499 653.565 741.924 654.656 742.23C654.881 742.293 655.088 742.351 655.269 742.4C656.331 742.786 655.559 742.014 653.629 740.76C651.699 739.602 646.971 736.418 643.208 733.716C639.445 731.111 631.436 725.225 625.55 720.787C619.568 716.252 609.726 708.436 603.647 703.418C597.568 698.304 587.437 689.138 581.261 682.866C574.989 676.594 569.875 670.998 569.875 670.515C569.875 670.033 570.454 669.55 571.13 669.55C571.709 669.55 573.639 670.129 575.182 670.901C576.726 671.673 587.34 676.691 598.629 681.998C609.822 687.401 619.568 691.743 620.05 691.743C620.533 691.743 623.427 692.804 626.322 694.155C629.217 695.506 631.822 696.375 632.112 696.085C632.401 695.796 631.436 695.024 629.989 694.252C628.445 693.576 625.454 691.454 623.331 689.717C621.112 687.883 615.708 683.831 611.27 680.647C606.831 677.463 596.7 669.647 588.691 663.279C580.779 656.91 566.305 643.884 556.463 634.331C546.718 624.779 533.209 610.691 526.551 602.972C519.893 595.349 510.727 584.446 506.288 578.85C501.85 573.253 494.71 563.797 490.368 557.718C486.122 551.736 480.429 543.631 477.824 539.868C475.315 536.104 470.587 528.964 467.499 524.14C464.412 519.219 461.806 514.684 461.806 514.201C461.806 513.719 464.991 511.692 468.85 509.763C472.613 507.833 479.464 503.78 483.999 500.789C488.534 497.798 495.385 492.394 499.341 488.631C503.201 484.965 508.218 479.465 510.341 476.57C512.56 473.675 517.192 466.921 520.665 461.614C524.236 456.307 531.279 444.825 536.586 436.044C541.797 427.264 548.069 417.518 550.674 414.334C553.183 411.15 558.2 405.65 561.867 402.176C565.437 398.702 572.095 392.817 576.63 389.054C581.165 385.387 591.972 376.896 600.752 370.334C609.533 363.773 617.735 357.405 619.085 356.15L621.498 353.931C617.059 354.992 611.849 356.729 607.024 358.563C602.2 360.396 592.454 363.58 585.314 365.606C578.174 367.729 568.621 370.238 564.086 371.396C559.551 372.457 553.472 373.615 550.577 373.905C547.683 374.194 544.788 374.773 544.306 375.062C543.727 375.448 543.63 375.255 544.113 374.483C544.499 373.905 545.367 373.326 546.042 373.326C546.621 373.326 552.411 370.72 558.779 367.729C565.147 364.641 573.156 360.203 576.63 357.887C580.103 355.571 585.893 351.229 589.656 348.142C593.419 345.15 599.112 340.133 602.393 337.045C605.577 333.861 614.068 325.081 621.112 317.361C628.155 309.642 644.173 292.563 656.62 279.344C669.164 266.125 684.795 250.494 691.453 244.511C698.111 238.625 706.505 231.389 710.269 228.494C714.032 225.503 718.084 222.126 719.435 220.775C720.786 219.52 723.198 217.494 724.742 216.24C727.637 214.117 727.54 214.117 722.33 216.433C719.435 217.687 714.418 219.906 711.234 221.45C708.049 222.897 699.365 226.95 691.935 230.52C684.506 234.09 676.015 238.143 673.12 239.494C671.313 240.337 668.679 241.518 666.181 242.639C664.676 243.314 663.22 243.967 662.024 244.511C659.025 245.874 652.26 248.692 646.647 251.031L646.645 251.032L645.62 251.459C639.831 253.871 631.726 257.151 627.77 258.695C623.813 260.239 613.778 263.809 605.577 266.704C597.375 269.502 588.016 272.493 584.831 273.362C584.042 273.553 583.115 273.78 582.116 274.025C579.085 274.768 575.382 275.676 572.77 276.257C569.297 277.028 563.507 278.09 559.744 278.669C555.981 279.248 550.77 279.537 547.972 279.441C545.27 279.344 543.244 278.958 543.437 278.572C543.63 278.09 544.499 277.8 545.27 277.8C546.042 277.8 547.49 277.414 548.455 276.932C549.323 276.449 552.893 275.292 556.367 274.327C559.84 273.362 567.174 270.95 572.77 268.923C578.367 266.8 589.173 262.072 596.893 258.309C604.612 254.45 614.164 249.336 618.121 246.827C622.077 244.415 629.024 239.88 633.559 236.792C638.094 233.704 646.103 227.625 651.506 223.38C656.91 219.038 664.243 212.959 667.909 209.775C671.576 206.591 680.26 198.292 687.207 191.442C694.155 184.591 709.593 167.995 721.461 154.679C724.95 150.765 728.48 146.809 731.807 143.081C739.799 134.127 746.616 126.487 748.865 123.899C752.049 120.232 758.803 112.899 764.014 107.592C769.128 102.188 774.338 96.5919 775.592 95.048L777.812 92.2498C774.049 93.4077 768.452 96.3024 762.856 99.5831C757.57 102.591 748.496 108.008 742.059 111.852L740.952 112.513C734.391 116.372 728.891 119.557 728.602 119.557C728.312 119.557 726.479 120.618 724.549 121.776C722.523 123.03 713.067 128.434 703.514 133.741C693.962 139.048 681.611 145.898 676.015 148.89C670.418 151.784 656.331 159.021 644.655 164.81C632.98 170.6 618.217 177.644 611.849 180.345C605.48 183.144 596.41 186.907 591.586 188.74C586.761 190.573 579.235 193.371 574.7 194.819C570.165 196.363 563.507 198.389 559.744 199.45C555.981 200.512 549.998 201.863 546.235 202.538C542.376 203.213 537.841 203.503 535.621 203.02L531.762 202.345C540.735 198.678 547.007 196.266 551.542 194.626C556.077 192.986 565.823 188.933 573.253 185.556C580.682 182.179 592.84 176.003 600.27 171.951C607.7 167.898 619.182 161.047 625.84 156.802C632.498 152.556 641.761 146.284 646.585 142.811C650.074 140.299 654.976 136.626 659.138 133.508C660.731 132.314 662.215 131.202 663.471 130.267C668.006 126.793 676.208 120.328 681.804 115.793C687.4 111.258 702.163 98.9076 714.611 88.1972C718.48 84.8979 722.825 81.1883 727.239 77.4192C737.026 69.0631 747.156 60.4143 753.207 55.2941C761.987 47.8643 773.277 38.5048 778.294 34.5487C783.312 30.4961 794.022 22.2944 801.934 16.4085C809.943 10.5226 817.952 4.34727 819.785 2.80343C821.618 1.1631 822.969 -0.0912762 822.68 0.00521393C822.39 0.00521393 818.724 1.25959 814.478 2.80343ZM521.591 150.792C519.578 152.119 517.59 153.429 516.323 154.293C514.201 155.74 507.446 159.503 501.367 162.784C495.289 165.968 483.999 171.468 476.28 174.942C468.561 178.415 461.999 181.31 461.517 181.31C461.131 181.31 458.526 182.372 455.824 183.626C453.026 184.88 448.298 186.907 445.403 188.065C442.508 189.222 437.394 191.442 434.114 192.986C430.737 194.529 427.842 195.784 427.552 195.784C427.263 195.784 424.175 197.521 420.605 199.547C416.939 201.573 412.789 204.564 411.246 206.012C409.798 207.556 405.553 212.766 401.983 217.494C398.412 222.319 393.395 229.845 390.886 234.38C388.377 238.915 385 245.573 383.553 249.336C382.106 253.099 379.79 260.239 378.439 265.257C377.088 270.274 375.544 278.765 374.869 284.072C374.193 289.862 374 298.16 374.29 304.818C374.676 310.896 375.351 319.388 375.93 323.633C376.413 327.879 377.571 334.633 378.439 338.589C379.307 342.545 382.106 352.098 384.711 359.817C387.22 367.536 391.465 379.212 394.07 385.869C396.772 392.527 400.439 401.597 402.272 406.132C403.784 409.873 406.478 416.109 408.729 421.319L408.733 421.328C408.945 421.818 409.153 422.299 409.355 422.768C409.609 423.354 409.854 423.922 410.088 424.465C412.596 430.062 416.263 437.202 418.386 440.386L418.387 440.388C420.51 443.572 422.632 446.755 423.21 447.43C423.886 448.202 425.912 448.395 430.254 447.912C433.535 447.623 438.456 446.369 441.061 445.211C443.763 444.053 447.912 441.062 450.517 438.553C453.026 436.141 456.5 431.799 458.236 429.097C460.07 426.299 462.964 420.702 464.701 416.746C466.534 412.79 473.192 399.088 479.561 386.352C485.929 373.615 494.42 358.37 498.28 352.58C502.236 346.791 508.122 338.686 511.499 334.73C514.78 330.773 519.797 325.37 522.692 322.765C525.586 320.256 529.736 316.975 531.955 315.528C534.174 314.177 535.911 312.633 535.718 312.054C535.621 311.572 532.727 310.8 529.253 310.414C525.876 310.125 521.534 309.353 519.701 308.774C517.867 308.195 514.394 306.554 511.981 305.107C509.569 303.66 505.516 300.765 502.815 298.642C500.21 296.519 495.385 291.791 492.201 288.125C489.017 284.555 484.578 278.862 482.359 275.581C480.14 272.3 478.499 269.309 478.692 268.923C478.982 268.441 481.683 267.669 484.771 267.09C487.762 266.511 493.938 264.195 498.473 261.879C503.008 259.66 510.823 255.318 515.841 252.23C520.858 249.143 529.06 244.222 534.078 241.231C539.095 238.239 543.244 235.538 543.437 235.152C543.63 234.669 539.192 234.38 533.499 234.476C527.709 234.476 520.665 234.283 517.771 233.994C516.307 233.799 514.522 233.579 512.841 233.372L512.837 233.371C511.196 233.169 509.653 232.979 508.604 232.836C506.481 232.546 500.885 231.196 496.06 229.845C491.236 228.59 482.841 225.213 477.341 222.511C471.841 219.713 465.763 216.143 463.833 214.503L460.359 211.512C467.113 204.275 476.666 196.556 485.929 189.705C495.192 182.758 505.806 174.459 509.473 171.275C513.139 167.995 519.797 161.337 524.236 156.512C528.578 151.591 532.244 146.863 532.244 146.091C532.244 145.319 531.955 144.644 531.472 144.644C531.086 144.644 528.385 146.188 525.49 148.214C524.323 148.992 522.951 149.896 521.591 150.792ZM183.239 172.337C181.696 173.784 176.582 181.503 171.854 189.415C167.029 197.328 160.564 206.88 157.38 210.643C154.099 214.406 149.468 218.845 146.959 220.389C144.45 221.933 142.424 223.573 142.424 224.055C142.424 224.441 143.003 225.02 143.582 225.31C144.257 225.599 147.827 224.924 151.591 223.766C155.354 222.608 160.95 220.389 164.134 218.845C167.319 217.301 172.529 213.731 175.713 211.029C178.897 208.327 182.757 204.564 184.204 202.635C185.748 200.705 188.16 197.231 189.511 194.819C191.345 191.635 192.116 188.74 192.309 184.205C192.599 178.994 192.309 177.258 190.476 174.17C189.222 172.047 187.774 170.214 187.099 169.924C186.52 169.731 184.687 170.793 183.239 172.337Z" fill="#E83C4A"/>
</g>
<g style="mix-blend-mode:color-dodge">
<path fill-rule="evenodd" clip-rule="evenodd" d="M842.943 15.8296C838.697 17.3734 827.408 21.7155 817.855 25.4786C808.303 29.2417 798.075 33.3908 795.18 34.6451C792.285 35.996 786.206 38.3118 781.671 39.8556C777.136 41.3994 768.066 44.6801 761.408 47.1888C759.99 47.7028 758.383 48.2869 756.668 48.9103C750.334 51.2125 742.525 54.0506 737.286 55.873C731.85 57.7636 718.697 62.2269 705.544 66.6898C702.587 67.6933 699.63 68.6968 696.76 69.6711C681.129 74.978 661.155 81.5393 652.375 84.3376C647.485 85.8956 641.489 87.7828 636.036 89.4993C631.695 90.8655 627.697 92.1236 624.875 93.0217C618.507 94.9515 608.279 98.1357 602.2 100.065C596.121 101.899 588.112 104.311 584.349 105.372C582.218 105.973 578.665 107.007 574.827 108.124C571.887 108.98 568.779 109.884 566.016 110.679C559.648 112.609 550.963 115.021 546.718 116.179C542.472 117.337 536.393 119.171 533.209 120.135C530.025 121.1 521.341 123.416 513.911 125.346C502.429 128.337 499.727 129.398 496.06 132.486C493.648 134.416 487.569 139.144 482.552 142.811C477.534 146.574 470.394 151.591 466.631 153.907C462.868 156.319 454.859 161.144 448.78 164.617C442.701 168.091 432.28 173.687 425.623 177.065C418.965 180.345 407 186.135 399.088 189.898C391.079 193.661 378.921 199.74 372.071 203.406C365.22 206.977 357.79 211.319 355.571 212.959C353.352 214.696 349.588 218.459 347.273 221.354C344.86 224.248 341.387 229.459 339.553 232.932C337.72 236.406 334.825 242.871 333.185 247.406C331.545 251.941 329.325 259.274 328.168 263.809C327.01 268.344 325.273 277.897 324.115 285.037C322.668 294.59 322.089 303.949 321.896 320.256C321.703 336.852 322.089 346.308 323.44 357.887L323.44 357.89C324.405 366.38 325.369 374.87 325.755 376.703C325.982 378.135 326.502 380.981 326.995 383.676C327.133 384.431 327.269 385.173 327.396 385.869C327.975 389.053 330.097 397.738 332.027 405.167C334.054 412.597 337.624 423.886 339.939 430.255C342.352 436.623 345.729 444.632 347.466 448.105C349.202 451.579 352.29 457.368 354.413 461.132C356.536 464.895 357.887 468.272 357.404 468.658C357.018 469.14 346.887 469.719 334.922 470.009C315.913 470.491 311.764 470.298 301.633 468.561C295.264 467.5 285.326 464.991 279.44 463.061C273.554 461.132 265.16 457.561 260.624 455.149C256.089 452.737 249.818 448.877 246.633 446.658C243.449 444.342 238.432 440.193 235.441 437.395C232.449 434.5 228.011 429.676 225.599 426.588C223.09 423.597 218.941 416.65 216.336 411.15C213.827 405.746 211.029 398.895 210.16 396.001C209.292 393.106 207.941 388.282 207.265 385.387C206.494 382.492 205.336 376.799 204.757 372.843C204.178 368.887 203.213 363.773 202.73 361.457C202.151 359.238 201.283 349.685 200.704 340.326C199.932 327.203 199.932 321.317 200.801 315.431C201.476 311.186 203.116 304.914 204.467 301.44C205.818 297.967 208.713 292.177 210.836 288.414C213.248 284.458 218.555 277.993 223.958 272.493C228.976 267.379 236.116 261.301 239.879 258.888C243.642 256.476 250.975 252.134 256.282 249.336C261.589 246.538 269.888 241.906 274.616 239.204C279.344 236.406 290.247 230.52 298.738 225.985C307.229 221.45 334.825 207.266 360.009 194.529C385.193 181.889 410.86 168.766 416.939 165.389C423.017 162.109 431.316 157.381 435.272 154.968C439.228 152.556 444.342 149.275 446.561 147.635C448.78 145.995 450.807 144.065 451.096 143.39C451.579 142.521 450.614 142.328 447.622 142.618C445.307 142.811 440 143.679 435.754 144.644C433.957 145.011 431.987 145.431 430.152 145.822C427.651 146.354 425.4 146.834 424.175 147.056C422.053 147.442 415.105 148.889 408.737 150.24C402.369 151.591 391.755 153.617 385.097 154.679C378.439 155.837 370.43 157.188 367.246 157.67C364.062 158.249 353.834 159.503 344.571 160.468C335.211 161.433 321.703 162.109 314.177 162.012C304.913 161.916 298.256 161.24 292.949 160.082C288.221 158.924 283.589 157.091 280.887 155.354C277.703 153.135 276.159 151.205 275.098 148.311C273.94 144.933 273.844 143.293 274.809 139.626C275.387 137.021 276.642 132.39 277.51 129.205C278.765 124.574 279.054 121.004 278.572 111.837C278.282 105.469 277.607 96.7848 277.124 92.5392C276.545 88.2937 275.387 82.2148 274.616 79.0306C273.844 75.8464 272.203 70.7324 270.949 67.6448C269.791 64.5571 268.44 62.2413 267.861 62.4343C267.282 62.6273 266.124 65.8115 265.16 69.4781C264.195 73.1447 261.203 80.3815 258.598 85.5919C255.993 90.7059 251.458 98.5216 248.467 102.96C245.572 107.302 242.002 112.416 240.555 114.346C239.107 116.276 236.598 119.267 235.055 121.1C233.511 122.837 229.748 126.6 226.853 129.495C223.958 132.293 218.941 136.346 215.757 138.372C211.8 140.977 206.301 143.197 198.388 145.512C192.02 147.346 181.406 150.819 174.748 153.232C168.09 155.547 159.792 158.635 156.222 159.986C152.556 161.337 144.354 165.1 137.889 168.38C131.328 171.565 123.03 176.293 119.266 178.705C115.6 181.214 109.907 185.845 106.626 189.029C103.346 192.214 99.4859 197.231 97.9421 200.126C95.6263 204.564 95.2404 206.591 95.2404 212.669C95.3368 218.459 95.8193 220.871 97.7491 224.731C99.1 227.432 102.67 232.257 105.661 235.634C108.845 239.108 110.872 242.195 110.582 243.064C110.293 243.836 109.521 244.511 108.942 244.511C108.267 244.511 105.565 245.573 102.863 247.02C100.258 248.467 96.1088 251.073 93.6965 252.906C91.2843 254.739 85.0124 260.432 79.8019 265.546C74.495 270.66 66.6793 279.248 62.4337 284.555C58.0917 289.862 53.2671 296.133 51.6268 298.546C49.89 300.958 46.5128 305.879 44.1006 309.642C41.5918 313.405 37.2498 320.931 34.4516 326.528C31.6533 332.124 29.0481 338.107 28.6622 339.843C28.3727 341.484 28.3727 342.931 28.8551 342.931C29.2411 342.931 32.6182 340.036 36.2849 336.563C39.9515 333.089 47.1883 327.493 52.2058 324.116C57.2232 320.835 64.653 316.493 68.6091 314.467C72.5652 312.44 80.2844 309.353 85.7843 307.616C91.8632 305.589 97.5561 304.335 100.74 304.335C104.021 304.335 107.205 305.011 110.003 306.458C112.416 307.712 114.635 309.353 115.021 310.125C115.407 310.896 116.468 319.581 117.337 329.423C118.205 339.265 119.363 349.203 119.845 351.615C120.095 353.173 120.746 356.702 121.488 360.722C121.895 362.927 122.33 365.28 122.74 367.536C123.801 373.904 126.31 384.518 128.144 391.176C129.977 397.834 132.389 405.843 133.354 409.027C134.415 412.211 136.731 418.579 138.564 423.307C140.398 427.939 143.775 435.465 146.091 440.193C148.406 444.825 151.494 450.807 153.038 453.412C154.582 456.114 157.766 461.035 160.082 464.509C160.339 464.88 160.604 465.261 160.872 465.647C163.115 468.881 165.64 472.52 166.933 474.158C168.283 475.991 172.24 480.816 175.81 484.772C179.38 488.728 185.652 494.903 189.897 498.57C194.046 502.14 201.38 507.736 206.108 510.921C210.836 514.201 220.002 519.315 226.37 522.499C232.739 525.587 241.616 529.447 246.151 530.99C250.686 532.534 257.633 534.657 261.589 535.718C265.545 536.78 273.554 538.613 279.44 539.675C285.326 540.736 295.457 542.183 302.115 542.666C308.773 543.245 323.054 543.727 333.957 543.631C339.918 543.578 348.244 543.525 356.57 543.472C363.473 543.429 370.376 543.385 375.93 543.341L398.026 543.148C406.904 555.885 412.982 563.894 417.324 569.201C421.57 574.508 427.263 581.262 429.868 584.157C432.377 587.051 441.061 596.121 449.166 604.323C457.175 612.525 468.368 623.332 473.964 628.446C479.561 633.56 487.762 640.796 492.297 644.656C496.736 648.515 502.043 652.858 504.069 654.305C506.095 655.752 510.148 658.936 512.946 661.349C515.744 663.761 520.762 667.717 524.139 670.129C527.516 672.542 536.2 678.427 543.341 683.252C550.481 688.076 558.49 693.19 560.998 694.734C562.017 695.361 563.53 696.275 565.239 697.307C567.736 698.816 570.653 700.578 573.06 702.068C577.112 704.576 588.498 711.138 598.34 716.637C608.182 722.234 622.27 729.76 629.699 733.523C637.129 737.19 648.032 742.207 653.822 744.716C659.611 747.225 665.304 749.637 666.366 750.023C667.427 750.506 670.225 751.567 672.637 752.339L672.994 752.453C675.338 753.203 678.107 754.09 679.392 754.365C680.512 754.525 682.029 754.95 683.12 755.256C683.345 755.319 683.552 755.377 683.734 755.427C684.795 755.813 684.023 755.041 682.093 753.786C680.164 752.628 675.436 749.444 671.673 746.742C667.909 744.137 659.901 738.251 654.015 733.813C648.032 729.278 638.19 721.462 632.112 716.445C626.033 711.331 615.901 702.164 609.726 695.892C603.454 689.62 598.34 684.024 598.34 683.541C598.34 683.059 598.919 682.576 599.594 682.576C600.173 682.576 602.103 683.155 603.647 683.927C605.191 684.699 615.805 689.717 627.094 695.024C638.287 700.427 648.032 704.769 648.515 704.769C648.997 704.769 651.892 705.831 654.787 707.181C657.681 708.532 660.287 709.401 660.576 709.111C660.866 708.822 659.901 708.05 658.453 707.278C656.91 706.603 653.918 704.48 651.796 702.743C649.576 700.91 644.173 696.857 639.734 693.673C635.296 690.489 625.164 682.673 617.156 676.305C609.243 669.936 594.77 656.91 584.928 647.358C575.182 637.805 561.674 623.717 555.016 615.998C548.358 608.376 539.192 597.472 534.753 591.876C530.314 586.279 523.174 576.823 518.832 570.744C514.587 564.762 508.894 556.657 506.288 552.894C503.78 549.131 499.052 541.99 495.964 537.166C492.876 532.245 490.271 527.71 490.271 527.227C490.271 526.745 493.455 524.719 497.315 522.789C501.078 520.859 507.929 516.806 512.464 513.815C516.999 510.824 523.85 505.421 527.806 501.657C531.665 497.991 536.683 492.491 538.806 489.596C541.025 486.701 545.656 479.947 549.13 474.64C552.7 469.333 559.744 457.851 565.051 449.07C570.261 440.29 576.533 430.544 579.138 427.36C581.647 424.176 586.665 418.676 590.331 415.202C593.902 411.729 600.559 405.843 605.094 402.08C609.629 398.413 620.436 389.922 629.217 383.361C637.997 376.799 646.199 370.431 647.55 369.176L649.962 366.957C645.524 368.019 640.313 369.755 635.489 371.589C630.664 373.422 620.919 376.606 613.778 378.633C606.638 380.755 597.086 383.264 592.551 384.422C588.016 385.483 581.937 386.641 579.042 386.931C576.147 387.22 573.253 387.799 572.77 388.089C572.191 388.475 572.095 388.282 572.577 387.51C572.963 386.931 573.832 386.352 574.507 386.352C575.086 386.352 580.875 383.747 587.244 380.755C593.612 377.668 601.621 373.229 605.094 370.913C608.568 368.598 614.357 364.255 618.121 361.168C621.884 358.177 627.577 353.159 630.857 350.071C634.041 346.887 642.533 338.107 649.576 330.387C656.62 322.668 672.637 305.589 685.085 292.37C697.628 279.151 713.26 263.52 719.918 257.537C726.575 251.651 734.97 244.415 738.733 241.52C742.496 238.529 746.549 235.152 747.9 233.801C749.251 232.546 751.663 230.52 753.207 229.266C756.101 227.143 756.005 227.143 750.794 229.459C747.9 230.713 742.882 232.932 739.698 234.476C736.514 235.924 727.83 239.976 720.4 243.546C712.97 247.116 704.479 251.169 701.585 252.52C699.778 253.363 697.144 254.545 694.645 255.665C693.14 256.34 691.685 256.993 690.488 257.537C687.489 258.9 680.725 261.718 675.111 264.057L675.11 264.058L674.085 264.485C668.295 266.897 660.19 270.178 656.234 271.721C652.278 273.265 642.243 276.835 634.041 279.73C625.84 282.528 616.48 285.52 613.296 286.388C612.506 286.579 611.58 286.806 610.58 287.051C607.55 287.794 603.847 288.702 601.235 289.283C597.761 290.055 591.972 291.116 588.209 291.695C584.445 292.274 579.235 292.563 576.437 292.467C573.735 292.37 571.709 291.984 571.902 291.598C572.095 291.116 572.963 290.826 573.735 290.826C574.507 290.826 575.954 290.441 576.919 289.958C577.788 289.476 581.358 288.318 584.831 287.353C588.305 286.388 595.638 283.976 601.235 281.949C606.831 279.827 617.638 275.099 625.357 271.335C633.076 267.476 642.629 262.362 646.585 259.853C650.541 257.441 657.488 252.906 662.024 249.818C666.559 246.73 674.567 240.652 679.971 236.406C685.374 232.064 692.707 225.985 696.374 222.801C700.041 219.617 708.725 211.319 715.672 204.468C722.619 197.617 738.058 181.021 749.926 167.705C753.415 163.791 756.945 159.835 760.272 156.107C768.263 147.153 775.081 139.514 777.329 136.925C780.513 133.258 787.268 125.925 792.478 120.618C797.592 115.214 802.803 109.618 804.057 108.074L806.276 105.276C802.513 106.434 796.917 109.329 791.32 112.609C786.034 115.617 776.961 121.034 770.523 124.878L769.417 125.539C762.856 129.398 757.356 132.583 757.066 132.583C756.777 132.583 754.944 133.644 753.014 134.802C750.987 136.056 741.531 141.46 731.979 146.767C722.426 152.074 710.076 158.924 704.479 161.916C698.883 164.81 684.795 172.047 673.12 177.837C661.445 183.626 646.682 190.67 640.313 193.371C633.945 196.17 624.875 199.933 620.05 201.766C615.226 203.599 607.7 206.398 603.165 207.845C598.629 209.389 591.972 211.415 588.209 212.476C584.445 213.538 578.463 214.889 574.7 215.564C570.84 216.24 566.305 216.529 564.086 216.047L560.226 215.371C569.2 211.705 575.472 209.292 580.007 207.652C584.542 206.012 594.287 201.959 601.717 198.582C609.147 195.205 621.305 189.029 628.734 184.977C636.164 180.924 647.646 174.073 654.304 169.828C660.962 165.582 670.225 159.31 675.05 155.837C678.539 153.325 683.44 149.652 687.602 146.534C689.195 145.34 690.68 144.228 691.935 143.293C696.471 139.819 704.672 133.355 710.269 128.82C715.865 124.284 730.628 111.934 743.075 101.223C746.945 97.924 751.289 94.2144 755.704 90.4453C765.491 82.0892 775.62 73.4404 781.671 68.3202C790.452 60.8905 801.741 51.5309 806.759 47.5748C811.776 43.5222 822.487 35.3206 830.399 29.4347C838.408 23.5488 846.416 17.3734 848.25 15.8296C850.083 14.1892 851.434 12.9348 851.144 13.0313C850.855 13.0313 847.188 14.2857 842.943 15.8296ZM550.056 163.819C548.043 165.145 546.055 166.455 544.788 167.319C542.665 168.766 535.911 172.53 529.832 175.81C523.753 178.994 512.464 184.494 504.745 187.968C497.025 191.442 490.464 194.336 489.982 194.336C489.596 194.336 486.99 195.398 484.289 196.652C481.49 197.906 476.762 199.933 473.868 201.091C470.973 202.249 465.859 204.468 462.578 206.012C459.201 207.555 456.307 208.81 456.017 208.81C455.728 208.81 452.64 210.547 449.07 212.573C445.403 214.599 441.254 217.59 439.71 219.038C438.263 220.582 434.017 225.792 430.447 230.52C426.877 235.345 421.86 242.871 419.351 247.406C416.842 251.941 413.465 258.599 412.018 262.362C410.57 266.125 408.254 273.265 406.904 278.283C405.553 283.3 404.009 291.791 403.333 297.098C402.658 302.888 402.465 311.186 402.754 317.844C403.14 323.923 403.816 332.414 404.395 336.659C404.877 340.905 406.035 347.659 406.904 351.615C407.772 355.571 410.57 365.124 413.175 372.843C415.684 380.562 419.93 392.238 422.535 398.895C425.237 405.553 428.903 414.623 430.737 419.158C432.249 422.899 434.943 429.135 437.194 434.345L437.198 434.354C437.409 434.844 437.617 435.325 437.82 435.794C438.073 436.38 438.318 436.948 438.552 437.492C441.061 443.088 444.728 450.228 446.85 453.412L446.852 453.415C448.974 456.598 451.096 459.781 451.675 460.456C452.35 461.228 454.377 461.421 458.719 460.939C461.999 460.649 466.92 459.395 469.526 458.237C472.227 457.079 476.376 454.088 478.982 451.579C481.49 449.167 484.964 444.825 486.701 442.123C488.534 439.325 491.429 433.728 493.166 429.772C494.999 425.816 501.657 412.115 508.025 399.378C514.394 386.641 522.885 371.396 526.744 365.606C530.7 359.817 536.586 351.712 539.963 347.756C543.244 343.8 548.262 338.396 551.156 335.791C554.051 333.282 558.2 330.001 560.419 328.554C562.639 327.203 564.376 325.659 564.182 325.08C564.086 324.598 561.191 323.826 557.718 323.44C554.341 323.151 549.998 322.379 548.165 321.8C546.332 321.221 542.858 319.581 540.446 318.133C538.034 316.686 533.981 313.791 531.279 311.668C528.674 309.546 523.85 304.818 520.665 301.151C517.481 297.581 513.043 291.888 510.823 288.607C508.604 285.327 506.964 282.335 507.157 281.949C507.446 281.467 510.148 280.695 513.236 280.116C516.227 279.537 522.402 277.221 526.937 274.906C531.472 272.686 539.288 268.344 544.306 265.257C549.323 262.169 557.525 257.248 562.542 254.257C567.56 251.266 571.709 248.564 571.902 248.178C572.095 247.695 567.656 247.406 561.963 247.502C556.174 247.502 549.13 247.309 546.235 247.02C544.771 246.825 542.987 246.605 541.306 246.398L541.302 246.397C539.66 246.195 538.117 246.005 537.069 245.862C534.946 245.573 529.35 244.222 524.525 242.871C519.701 241.616 511.306 238.239 505.806 235.538C500.306 232.739 494.227 229.169 492.297 227.529L488.824 224.538C495.578 217.301 505.131 209.582 514.394 202.731C523.657 195.784 534.271 187.486 537.937 184.301C541.604 181.021 548.262 174.363 552.7 169.538C557.042 164.617 560.709 159.889 560.709 159.117C560.709 158.345 560.419 157.67 559.937 157.67C559.551 157.67 556.849 159.214 553.955 161.24C552.787 162.018 551.416 162.922 550.056 163.819ZM211.704 185.363C210.16 186.81 205.046 194.529 200.318 202.441C195.494 210.354 189.029 219.906 185.845 223.669C182.564 227.432 177.932 231.871 175.424 233.415C172.915 234.959 170.889 236.599 170.889 237.081C170.889 237.467 171.468 238.046 172.047 238.336C172.722 238.625 176.292 237.95 180.055 236.792C183.818 235.634 189.415 233.415 192.599 231.871C195.783 230.327 200.994 226.757 204.178 224.055C207.362 221.354 211.222 217.59 212.669 215.661C214.213 213.731 216.625 210.257 217.976 207.845C219.809 204.661 220.581 201.766 220.774 197.231C221.064 192.021 220.774 190.284 218.941 187.196C217.686 185.073 216.239 183.24 215.564 182.95C214.985 182.758 213.151 183.819 211.704 185.363Z" fill="#5FC9F3"/>
</g>
<g style="mix-blend-mode:screen">
<path fill-rule="evenodd" clip-rule="evenodd" d="M820.75 30.3032C816.504 31.847 805.215 36.1891 795.662 39.9522C786.11 43.7153 775.882 47.8644 772.987 49.1188C770.093 50.4696 764.014 52.7854 759.479 54.3292C754.944 55.8731 745.873 59.1537 739.216 61.6625C737.797 62.1765 736.19 62.7605 734.475 63.3839C728.141 65.6861 720.332 68.5243 715.093 70.3466C709.657 72.2372 696.504 76.7005 683.352 81.1634C680.394 82.167 677.437 83.1705 674.567 84.1447C658.936 89.4516 638.962 96.013 630.182 98.8112C625.293 100.369 619.297 102.256 613.843 103.973C609.502 105.339 605.504 106.597 602.682 107.495C596.314 109.425 586.086 112.609 580.007 114.539C573.928 116.372 565.919 118.785 562.156 119.846C560.026 120.447 556.472 121.481 552.635 122.598C549.694 123.453 546.586 124.358 543.823 125.153C537.455 127.083 528.771 129.495 524.525 130.653C520.279 131.811 514.201 133.644 511.016 134.609C507.832 135.574 499.148 137.89 491.718 139.82C480.236 142.811 477.534 143.872 473.868 146.96C471.455 148.89 465.377 153.618 460.359 157.284C455.342 161.047 448.201 166.065 444.438 168.381C440.675 170.793 432.666 175.617 426.588 179.091C420.509 182.565 410.088 188.161 403.43 191.538C396.772 194.819 384.807 200.608 376.895 204.371C368.886 208.135 356.729 214.213 349.878 217.88C343.027 221.45 335.597 225.792 333.378 227.433C331.159 229.169 327.396 232.933 325.08 235.827C322.668 238.722 319.194 243.932 317.361 247.406C315.527 250.88 312.633 257.345 310.992 261.88C309.352 266.415 307.133 273.748 305.975 278.283C304.817 282.818 303.08 292.37 301.922 299.511C300.475 309.063 299.896 318.423 299.703 334.73C299.51 351.326 299.896 360.782 301.247 372.361L301.247 372.364C302.212 380.854 303.177 389.343 303.563 391.176C303.789 392.609 304.309 395.455 304.803 398.15C304.941 398.904 305.076 399.647 305.203 400.343C305.782 403.527 307.905 412.211 309.834 419.641C311.861 427.071 315.431 438.36 317.747 444.728C320.159 451.097 323.536 459.105 325.273 462.579C327.01 466.053 330.097 471.842 332.22 475.605C334.343 479.368 335.694 482.746 335.211 483.131C334.825 483.614 324.694 484.193 312.729 484.482C293.721 484.965 289.572 484.772 279.44 483.035C273.072 481.974 263.133 479.465 257.247 477.535C251.361 475.605 242.967 472.035 238.432 469.623C233.897 467.211 227.625 463.351 224.441 461.132C221.256 458.816 216.239 454.667 213.248 451.869C210.257 448.974 205.818 444.149 203.406 441.062C200.897 438.071 196.748 431.123 194.143 425.623C191.634 420.22 188.836 413.369 187.967 410.474C187.099 407.58 185.748 402.755 185.073 399.86C184.301 396.966 183.143 391.273 182.564 387.317C181.985 383.361 181.02 378.247 180.538 375.931C179.959 373.712 179.09 364.159 178.511 354.8C177.739 341.677 177.739 335.791 178.608 329.905C179.283 325.66 180.924 319.388 182.274 315.914C183.625 312.44 186.52 306.651 188.643 302.888C191.055 298.932 196.362 292.467 201.765 286.967C206.783 281.853 213.923 275.774 217.686 273.362C221.449 270.95 228.783 266.608 234.09 263.809C239.397 261.011 247.695 256.38 252.423 253.678C257.151 250.88 268.054 244.994 276.545 240.459C285.036 235.924 312.633 221.74 337.817 209.003C363.001 196.363 388.667 183.24 394.746 179.863C400.825 176.582 409.123 171.854 413.079 169.442C417.035 167.03 422.149 163.749 424.368 162.109C426.588 160.468 428.614 158.539 428.903 157.863C429.386 156.995 428.421 156.802 425.43 157.091C423.114 157.284 417.807 158.153 413.561 159.118C411.764 159.485 409.794 159.905 407.959 160.295C405.458 160.828 403.207 161.307 401.983 161.53C399.86 161.916 392.912 163.363 386.544 164.714C380.176 166.065 369.562 168.091 362.904 169.153C356.246 170.31 348.238 171.661 345.053 172.144C341.869 172.723 331.641 173.977 322.378 174.942C313.019 175.907 299.51 176.582 291.984 176.486C282.721 176.389 276.063 175.714 270.756 174.556C266.028 173.398 261.396 171.565 258.695 169.828C255.511 167.609 253.967 165.679 252.905 162.784C251.747 159.407 251.651 157.767 252.616 154.1C253.195 151.495 254.449 146.863 255.318 143.679C256.572 139.048 256.861 135.477 256.379 126.311C256.089 119.943 255.414 111.258 254.932 107.013C254.353 102.767 253.195 96.6884 252.423 93.5042C251.651 90.3201 250.011 85.2061 248.756 82.1184C247.598 79.0307 246.247 76.7149 245.668 76.9079C245.09 77.1009 243.932 80.2851 242.967 83.9517C242.002 87.6183 239.011 94.8551 236.405 100.066C233.8 105.18 229.265 112.995 226.274 117.434C223.379 121.776 219.809 126.89 218.362 128.82C216.914 130.749 214.406 133.741 212.862 135.574C211.318 137.311 207.555 141.074 204.66 143.969C201.765 146.767 196.748 150.819 193.564 152.846C189.608 155.451 184.108 157.67 176.196 159.986C169.827 161.819 159.213 165.293 152.555 167.705C145.898 170.021 137.6 173.109 134.029 174.459C130.363 175.81 122.161 179.573 115.696 182.854C109.135 186.038 100.837 190.766 97.0737 193.179C93.407 195.687 87.7141 200.319 84.4334 203.503C81.1528 206.687 77.2932 211.705 75.7493 214.599C73.4336 219.038 73.0476 221.064 73.0476 227.143C73.1441 232.933 73.6266 235.345 75.5564 239.204C76.9072 241.906 80.4774 246.731 83.4685 250.108C86.6527 253.581 88.679 256.669 88.3895 257.537C88.1001 258.309 87.3282 258.985 86.7492 258.985C86.0738 258.985 83.3721 260.046 80.6703 261.494C78.0651 262.941 73.916 265.546 71.5038 267.379C69.0915 269.213 62.8197 274.906 57.6092 280.02C52.3022 285.134 44.4865 293.721 40.241 299.028C35.8989 304.335 31.0744 310.607 29.4341 313.019C27.6972 315.432 24.3201 320.353 21.9078 324.116C19.3991 327.879 15.057 335.405 12.2588 341.001C9.4606 346.598 6.85536 352.58 6.4694 354.317C6.17993 355.957 6.17993 357.405 6.66238 357.405C7.04834 357.405 10.4255 354.51 14.0921 351.036C17.7588 347.563 24.9955 341.966 30.013 338.589C35.0305 335.309 42.4602 330.966 46.4163 328.94C50.3724 326.914 58.0916 323.826 63.5916 322.089C69.6705 320.063 75.3634 318.809 78.5476 318.809C81.8282 318.809 85.0124 319.484 87.8106 320.932C90.2229 322.186 92.4421 323.826 92.8281 324.598C93.2141 325.37 94.2754 334.054 95.1439 343.896C96.0123 353.738 97.1701 363.677 97.6526 366.089C97.9018 367.647 98.5534 371.176 99.2955 375.195C99.7027 377.401 100.137 379.754 100.547 382.01C101.609 388.378 104.117 398.992 105.951 405.65C107.784 412.308 110.196 420.316 111.161 423.501C112.223 426.685 114.538 433.053 116.372 437.781C118.205 442.413 121.582 449.939 123.898 454.667C126.214 459.298 129.301 465.281 130.845 467.886C132.389 470.588 135.573 475.509 137.889 478.982C138.147 479.353 138.411 479.734 138.679 480.121C140.923 483.355 143.447 486.994 144.74 488.631C146.091 490.465 150.047 495.289 153.617 499.245C157.187 503.201 163.459 509.377 167.704 513.043C171.854 516.614 179.187 522.21 183.915 525.394C188.643 528.675 197.809 533.789 204.178 536.973C210.546 540.061 219.423 543.92 223.958 545.464C228.493 547.008 235.441 549.131 239.397 550.192C243.353 551.253 251.361 553.087 257.247 554.148C263.133 555.21 273.265 556.657 279.923 557.139C286.58 557.718 300.861 558.201 311.764 558.104C317.725 558.052 326.052 557.999 334.378 557.946C341.28 557.902 348.183 557.859 353.737 557.815L375.834 557.622C384.711 570.359 390.79 578.367 395.132 583.674C399.377 588.981 405.07 595.735 407.675 598.63C410.184 601.525 418.868 610.595 426.973 618.797C434.982 626.998 446.175 637.805 451.771 642.919C457.368 648.033 465.57 655.27 470.105 659.13C474.543 662.989 479.85 667.331 481.876 668.779C483.903 670.226 487.955 673.41 490.753 675.822C493.552 678.235 498.569 682.191 501.946 684.603C505.323 687.015 514.008 692.901 521.148 697.726C528.288 702.55 536.297 707.664 538.806 709.208C539.825 709.835 541.337 710.749 543.046 711.781C545.544 713.29 548.46 715.051 550.867 716.541C554.919 719.05 566.305 725.611 576.147 731.111C585.989 736.708 600.077 744.234 607.507 747.997C614.936 751.664 625.84 756.681 631.629 759.19C637.419 761.699 643.111 764.111 644.173 764.497C645.234 764.979 648.032 766.041 650.445 766.812L650.802 766.927C653.145 767.677 655.914 768.563 657.199 768.839C658.319 768.999 659.837 769.424 660.928 769.73C661.153 769.793 661.36 769.851 661.541 769.9C662.602 770.286 661.831 769.514 659.901 768.26C657.971 767.102 653.243 763.918 649.48 761.216C645.717 758.611 637.708 752.725 631.822 748.286C625.84 743.751 615.998 735.936 609.919 730.918C603.84 725.804 593.709 716.638 587.533 710.366C581.261 704.094 576.147 698.497 576.147 698.015C576.147 697.533 576.726 697.05 577.402 697.05C577.981 697.05 579.91 697.629 581.454 698.401C582.998 699.173 593.612 704.19 604.901 709.497C616.094 714.901 625.84 719.243 626.322 719.243C626.805 719.243 629.699 720.304 632.594 721.655C635.489 723.006 638.094 723.874 638.383 723.585C638.673 723.295 637.708 722.524 636.261 721.752C634.717 721.076 631.726 718.953 629.603 717.217C627.384 715.383 621.98 711.331 617.542 708.146C613.103 704.962 602.972 697.147 594.963 690.778C587.051 684.41 572.577 671.384 562.735 661.831C552.99 652.279 539.481 638.191 532.823 630.472C526.165 622.849 516.999 611.946 512.56 606.349C508.122 600.753 500.981 591.297 496.639 585.218C492.394 579.236 486.701 571.131 484.096 567.367C481.587 563.604 476.859 556.464 473.771 551.639C470.684 546.718 468.078 542.183 468.078 541.701C468.078 541.219 471.262 539.192 475.122 537.262C478.885 535.333 485.736 531.28 490.271 528.289C494.806 525.298 501.657 519.894 505.613 516.131C509.473 512.464 514.49 506.965 516.613 504.07C518.832 501.175 523.464 494.421 526.937 489.114C530.507 483.807 537.551 472.325 542.858 463.544C548.069 454.763 554.34 445.018 556.946 441.834C559.454 438.65 564.472 433.15 568.139 429.676C571.709 426.202 578.367 420.316 582.902 416.553C587.437 412.887 598.244 404.395 607.024 397.834C615.805 391.273 624.006 384.904 625.357 383.65L627.77 381.431C623.331 382.492 618.121 384.229 613.296 386.062C608.471 387.896 598.726 391.08 591.586 393.106C584.445 395.229 574.893 397.738 570.358 398.896C565.823 399.957 559.744 401.115 556.849 401.404C553.955 401.694 551.06 402.273 550.577 402.562C549.998 402.948 549.902 402.755 550.384 401.983C550.77 401.404 551.639 400.825 552.314 400.825C552.893 400.825 558.683 398.22 565.051 395.229C571.419 392.141 579.428 387.703 582.902 385.387C586.375 383.071 592.165 378.729 595.928 375.641C599.691 372.65 605.384 367.633 608.664 364.545C611.849 361.361 620.34 352.58 627.384 344.861C634.427 337.142 650.445 320.063 662.892 306.844C675.436 293.625 691.067 277.993 697.725 272.011C704.383 266.125 712.777 258.888 716.54 255.994C720.304 253.002 724.356 249.625 725.707 248.274C727.058 247.02 729.47 244.994 731.014 243.739C733.909 241.617 733.812 241.617 728.602 243.932C725.707 245.187 720.69 247.406 717.505 248.95C714.321 250.397 705.637 254.45 698.207 258.02C690.778 261.59 682.286 265.643 679.392 266.994C677.585 267.837 674.951 269.018 672.452 270.139C670.948 270.814 669.492 271.467 668.295 272.011C665.297 273.374 658.532 276.192 652.919 278.531L652.917 278.531L651.892 278.958C646.103 281.371 637.997 284.651 634.041 286.195C630.085 287.739 620.05 291.309 611.849 294.204C603.647 297.002 594.287 299.993 591.103 300.862C590.313 301.053 589.387 301.28 588.388 301.525C585.357 302.268 581.654 303.176 579.042 303.756C575.568 304.528 569.779 305.59 566.016 306.169C562.253 306.747 557.042 307.037 554.244 306.94C551.542 306.844 549.516 306.458 549.709 306.072C549.902 305.59 550.77 305.3 551.542 305.3C552.314 305.3 553.762 304.914 554.726 304.432C555.595 303.949 559.165 302.791 562.639 301.826C566.112 300.862 573.446 298.449 579.042 296.423C584.638 294.3 595.445 289.572 603.165 285.809C610.884 281.95 620.436 276.836 624.392 274.327C628.348 271.915 635.296 267.379 639.831 264.292C644.366 261.204 652.375 255.125 657.778 250.88C663.181 246.538 670.515 240.459 674.181 237.275C677.848 234.09 686.532 225.792 693.479 218.941C700.427 212.091 715.865 195.494 727.733 182.179C731.222 178.265 734.752 174.309 738.079 170.581C746.07 161.627 752.888 153.987 755.137 151.398C758.321 147.732 765.075 140.398 770.285 135.091C775.399 129.688 780.61 124.092 781.864 122.548L784.084 119.75C780.32 120.907 774.724 123.802 769.128 127.083C763.842 130.09 754.768 135.508 748.33 139.352L747.224 140.012C740.663 143.872 735.163 147.056 734.874 147.056C734.584 147.056 732.751 148.118 730.821 149.276C728.795 150.53 719.339 155.933 709.786 161.24C700.234 166.547 687.883 173.398 682.286 176.389C676.69 179.284 662.602 186.521 650.927 192.31C639.252 198.1 624.489 205.143 618.121 207.845C611.752 210.643 602.682 214.406 597.858 216.24C593.033 218.073 585.507 220.871 580.972 222.319C576.437 223.862 569.779 225.889 566.016 226.95C562.253 228.012 556.27 229.362 552.507 230.038C548.648 230.713 544.113 231.003 541.893 230.52L538.034 229.845C547.007 226.178 553.279 223.766 557.814 222.126C562.349 220.485 572.095 216.433 579.524 213.056C586.954 209.678 599.112 203.503 606.542 199.45C613.971 195.398 625.454 188.547 632.112 184.301C638.769 180.056 648.032 173.784 652.857 170.31C656.346 167.798 661.248 164.126 665.409 161.008C667.003 159.814 668.487 158.702 669.743 157.767C674.278 154.293 682.479 147.828 688.076 143.293C693.672 138.758 708.435 126.407 720.883 115.697C724.752 112.398 729.097 108.688 733.511 104.919C743.298 96.5628 753.427 87.914 759.479 82.7938C768.259 75.3641 779.549 66.0045 784.566 62.0484C789.584 57.9959 800.294 49.7942 808.206 43.9083C816.215 38.0224 824.223 31.847 826.057 30.3032C827.89 28.6629 829.241 27.4085 828.951 27.505C828.662 27.505 824.995 28.7593 820.75 30.3032ZM527.863 178.292C525.85 179.619 523.862 180.929 522.595 181.793C520.472 183.24 513.718 187.003 507.639 190.284C501.56 193.468 490.271 198.968 482.552 202.442C474.833 205.915 468.271 208.81 467.789 208.81C467.403 208.81 464.798 209.871 462.096 211.126C459.298 212.38 454.57 214.406 451.675 215.564C448.78 216.722 443.666 218.941 440.386 220.485C437.008 222.029 434.114 223.283 433.824 223.283C433.535 223.283 430.447 225.02 426.877 227.047C423.21 229.073 419.061 232.064 417.517 233.511C416.07 235.055 411.825 240.266 408.254 244.994C404.684 249.818 399.667 257.345 397.158 261.88C394.649 266.415 391.272 273.072 389.825 276.836C388.377 280.599 386.062 287.739 384.711 292.756C383.36 297.774 381.816 306.265 381.141 311.572C380.465 317.361 380.272 325.66 380.562 332.317C380.948 338.396 381.623 346.887 382.202 351.133C382.685 355.378 383.842 362.133 384.711 366.089C385.579 370.045 388.377 379.598 390.983 387.317C393.491 395.036 397.737 406.711 400.342 413.369C403.044 420.027 406.711 429.097 408.544 433.632C410.056 437.373 412.75 443.608 415.001 448.819L415.005 448.827C415.217 449.317 415.425 449.799 415.627 450.268C415.88 450.854 416.125 451.422 416.36 451.965C418.868 457.562 422.535 464.702 424.658 467.886L424.659 467.888C426.781 471.072 428.903 474.254 429.482 474.93C430.158 475.702 432.184 475.895 436.526 475.412C439.807 475.123 444.728 473.868 447.333 472.711C450.035 471.553 454.184 468.561 456.789 466.053C459.298 463.64 462.771 459.298 464.508 456.597C466.341 453.798 469.236 448.202 470.973 444.246C472.806 440.29 479.464 426.588 485.832 413.852C492.201 401.115 500.692 385.869 504.552 380.08C508.508 374.291 514.394 366.185 517.771 362.229C521.051 358.273 526.069 352.87 528.964 350.265C531.858 347.756 536.007 344.475 538.227 343.028C540.446 341.677 542.183 340.133 541.99 339.554C541.893 339.072 538.999 338.3 535.525 337.914C532.148 337.624 527.806 336.852 525.972 336.273C524.139 335.695 520.665 334.054 518.253 332.607C515.841 331.159 511.788 328.265 509.087 326.142C506.481 324.019 501.657 319.291 498.473 315.625C495.289 312.054 490.85 306.361 488.631 303.081C486.411 299.8 484.771 296.809 484.964 296.423C485.254 295.941 487.955 295.169 491.043 294.59C494.034 294.011 500.21 291.695 504.745 289.379C509.28 287.16 517.095 282.818 522.113 279.73C527.13 276.643 535.332 271.722 540.349 268.73C545.367 265.739 549.516 263.037 549.709 262.651C549.902 262.169 545.463 261.88 539.77 261.976C533.981 261.976 526.937 261.783 524.043 261.494C522.579 261.298 520.794 261.079 519.113 260.871L519.109 260.871C517.467 260.669 515.925 260.479 514.876 260.336C512.753 260.046 507.157 258.695 502.332 257.345C497.508 256.09 489.113 252.713 483.613 250.011C478.113 247.213 472.034 243.643 470.105 242.003L466.631 239.011C473.385 231.775 482.938 224.055 492.201 217.205C501.464 210.257 512.078 201.959 515.744 198.775C519.411 195.494 526.069 188.836 530.507 184.012C534.85 179.091 538.516 174.363 538.516 173.591C538.516 172.819 538.227 172.144 537.744 172.144C537.358 172.144 534.657 173.688 531.762 175.714C530.594 176.492 529.223 177.396 527.863 178.292ZM189.511 199.836C187.967 201.284 182.853 209.003 178.125 216.915C173.301 224.827 166.836 234.38 163.652 238.143C160.371 241.906 155.74 246.345 153.231 247.888C150.722 249.432 148.696 251.073 148.696 251.555C148.696 251.941 149.275 252.52 149.854 252.809C150.529 253.099 154.099 252.424 157.862 251.266C161.626 250.108 167.222 247.888 170.406 246.345C173.59 244.801 178.801 241.231 181.985 238.529C185.169 235.827 189.029 232.064 190.476 230.134C192.02 228.204 194.432 224.731 195.783 222.319C197.616 219.134 198.388 216.24 198.581 211.705C198.871 206.494 198.581 204.757 196.748 201.67C195.494 199.547 194.046 197.714 193.371 197.424C192.792 197.231 190.959 198.293 189.511 199.836Z" fill="#EFE030"/>
</g>
<rect x="137.981" y="166.928" width="91.6656" height="73.3325" fill="white"/>
<path fill-rule="evenodd" clip-rule="evenodd" d="M825.092 11.4875C820.846 13.0314 809.557 17.3734 800.004 21.1365C790.452 24.8996 780.224 29.0487 777.329 30.3031C774.435 31.654 768.356 33.9697 763.821 35.5136C759.286 37.0574 750.216 40.3381 743.558 42.8468C742.139 43.3608 740.532 43.9449 738.817 44.5682C732.483 46.8705 724.674 49.7086 719.435 51.5309C714 53.4216 700.846 57.8848 687.694 62.3478C684.736 63.3513 681.779 64.3548 678.909 65.329C663.278 70.636 643.304 77.1973 634.524 79.9955C629.635 81.5536 623.639 83.4407 618.185 85.1572C613.844 86.5235 609.847 87.7816 607.024 88.6796C600.656 90.6094 590.428 93.7936 584.349 95.7234C578.27 97.5567 570.261 99.969 566.498 101.03C564.368 101.631 560.814 102.665 556.977 103.782C554.036 104.638 550.928 105.542 548.165 106.337C541.797 108.267 533.113 110.679 528.867 111.837C524.622 112.995 518.543 114.828 515.358 115.793C512.174 116.758 503.49 119.074 496.06 121.004C484.578 123.995 481.876 125.056 478.21 128.144C475.798 130.074 469.719 134.802 464.701 138.469C459.684 142.232 452.543 147.249 448.78 149.565C445.017 151.977 437.008 156.802 430.93 160.275C424.851 163.749 414.43 169.345 407.772 172.723C401.114 176.003 389.149 181.793 381.237 185.556C373.228 189.319 361.071 195.398 354.22 199.064C347.369 202.634 339.939 206.977 337.72 208.617C335.501 210.354 331.738 214.117 329.422 217.012C327.01 219.906 323.536 225.117 321.703 228.59C319.869 232.064 316.975 238.529 315.334 243.064C313.694 247.599 311.475 254.932 310.317 259.467C309.159 264.002 307.422 273.555 306.264 280.695C304.817 290.248 304.238 299.607 304.045 315.914C303.852 332.51 304.238 341.966 305.589 353.545L305.589 353.548C306.554 362.038 307.519 370.528 307.905 372.361C308.131 373.793 308.652 376.639 309.145 379.334C309.283 380.089 309.418 380.831 309.545 381.527C310.124 384.711 312.247 393.396 314.176 400.825C316.203 408.255 319.773 419.544 322.089 425.913C324.501 432.281 327.878 440.29 329.615 443.763C331.352 447.237 334.439 453.026 336.562 456.79C338.685 460.553 340.036 463.93 339.553 464.316C339.167 464.798 329.036 465.377 317.071 465.667C298.063 466.149 293.914 465.956 283.782 464.219C277.414 463.158 267.475 460.649 261.589 458.719C255.703 456.79 247.309 453.219 242.774 450.807C238.239 448.395 231.967 444.535 228.783 442.316C225.599 440 220.581 435.851 217.59 433.053C214.599 430.158 210.16 425.334 207.748 422.246C205.239 419.255 201.09 412.308 198.485 406.808C195.976 401.404 193.178 394.553 192.309 391.659C191.441 388.764 190.09 383.939 189.415 381.045C188.643 378.15 187.485 372.457 186.906 368.501C186.327 364.545 185.362 359.431 184.88 357.115C184.301 354.896 183.432 345.343 182.853 335.984C182.081 322.861 182.081 316.975 182.95 311.089C183.625 306.844 185.266 300.572 186.617 297.098C187.967 293.625 190.862 287.835 192.985 284.072C195.397 280.116 200.704 273.651 206.108 268.151C211.125 263.037 218.265 256.958 222.028 254.546C225.792 252.134 233.125 247.792 238.432 244.994C243.739 242.195 252.037 237.564 256.765 234.862C261.493 232.064 272.396 226.178 280.887 221.643C289.379 217.108 316.975 202.924 342.159 190.187C367.343 177.547 393.009 164.424 399.088 161.047C405.167 157.767 413.465 153.039 417.421 150.626C421.377 148.214 426.491 144.933 428.71 143.293C430.93 141.653 432.956 139.723 433.245 139.047C433.728 138.179 432.763 137.986 429.772 138.276C427.456 138.469 422.149 139.337 417.903 140.302C416.106 140.669 414.136 141.089 412.301 141.48C409.8 142.012 407.549 142.492 406.325 142.714C404.202 143.1 397.255 144.547 390.886 145.898C384.518 147.249 373.904 149.275 367.246 150.337C360.588 151.495 352.58 152.846 349.395 153.328C346.211 153.907 335.983 155.161 326.72 156.126C317.361 157.091 303.852 157.767 296.326 157.67C287.063 157.574 280.405 156.898 275.098 155.74C270.37 154.582 265.738 152.749 263.037 151.012C259.853 148.793 258.309 146.863 257.247 143.968C256.089 140.591 255.993 138.951 256.958 135.284C257.537 132.679 258.791 128.048 259.66 124.863C260.914 120.232 261.203 116.662 260.721 107.495C260.431 101.127 259.756 92.4427 259.274 88.1972C258.695 83.9516 257.537 77.8727 256.765 74.6886C255.993 71.5044 254.353 66.3904 253.098 63.3027C251.94 60.215 250.589 57.8993 250.011 58.0923C249.432 58.2852 248.274 61.4694 247.309 65.136C246.344 68.8027 243.353 76.0394 240.747 81.2499C238.142 86.3639 233.607 94.1796 230.616 98.6181C227.721 102.96 224.151 108.074 222.704 110.004C221.256 111.934 218.748 114.925 217.204 116.758C215.66 118.495 211.897 122.258 209.002 125.153C206.108 127.951 201.09 132.004 197.906 134.03C193.95 136.635 188.45 138.855 180.538 141.17C174.169 143.004 163.555 146.477 156.898 148.889C150.24 151.205 141.942 154.293 138.371 155.644C134.705 156.995 126.503 160.758 120.038 164.038C113.477 167.223 105.179 171.951 101.416 174.363C97.7491 176.872 92.0562 181.503 88.7755 184.687C85.4948 187.872 81.6352 192.889 80.0914 195.784C77.7756 200.222 77.3896 202.249 77.3896 208.327C77.4861 214.117 77.9686 216.529 79.8984 220.389C81.2493 223.09 84.8194 227.915 87.8106 231.292C90.9948 234.766 93.0211 237.853 92.7316 238.722C92.4421 239.494 91.6702 240.169 91.0913 240.169C90.4158 240.169 87.7141 241.231 85.0124 242.678C82.4071 244.125 78.2581 246.731 75.8458 248.564C73.4336 250.397 67.1617 256.09 61.9512 261.204C56.6443 266.318 48.8286 274.906 44.583 280.213C40.2409 285.52 35.4164 291.791 33.7761 294.204C32.0393 296.616 28.6621 301.537 26.2499 305.3C23.7411 309.063 19.3991 316.589 16.6009 322.186C13.8026 327.782 11.1974 333.765 10.8114 335.501C10.522 337.142 10.522 338.589 11.0044 338.589C11.3904 338.589 14.7675 335.694 18.4342 332.221C22.1008 328.747 29.3376 323.151 34.355 319.774C39.3725 316.493 46.8023 312.151 50.7584 310.125C54.7145 308.098 62.4337 305.011 67.9336 303.274C74.0125 301.247 79.7054 299.993 82.8896 299.993C86.1703 299.993 89.3544 300.668 92.1526 302.116C94.5649 303.37 96.7842 305.011 97.1701 305.782C97.5561 306.554 98.6175 315.238 99.4859 325.08C100.354 334.922 101.512 344.861 101.995 347.273C102.244 348.831 102.895 352.36 103.638 356.38C104.045 358.585 104.479 360.938 104.889 363.194C105.951 369.562 108.459 380.176 110.293 386.834C112.126 393.492 114.538 401.501 115.503 404.685C116.565 407.869 118.88 414.237 120.714 418.965C122.547 423.597 125.924 431.123 128.24 435.851C130.556 440.483 133.643 446.465 135.187 449.07C136.731 451.772 139.915 456.693 142.231 460.167C142.489 460.538 142.753 460.919 143.021 461.305C145.265 464.539 147.789 468.178 149.082 469.816C150.433 471.649 154.389 476.474 157.959 480.43C161.529 484.386 167.801 490.561 172.046 494.228C176.196 497.798 183.529 503.394 188.257 506.579C192.985 509.859 202.151 514.973 208.52 518.157C214.888 521.245 223.765 525.105 228.3 526.648C232.835 528.192 239.783 530.315 243.739 531.376C247.695 532.438 255.703 534.271 261.589 535.333C267.475 536.394 277.607 537.841 284.265 538.324C290.922 538.903 305.203 539.385 316.106 539.289C322.067 539.236 330.394 539.183 338.72 539.13C345.622 539.087 352.525 539.043 358.08 538.999L380.176 538.806C389.053 551.543 395.132 559.552 399.474 564.859C403.719 570.165 409.412 576.92 412.018 579.814C414.526 582.709 423.21 591.779 431.316 599.981C439.324 608.183 450.517 618.99 456.114 624.103C461.71 629.217 469.912 636.454 474.447 640.314C478.885 644.173 484.192 648.515 486.218 649.963C488.245 651.41 492.297 654.594 495.096 657.007C497.894 659.419 502.911 663.375 506.288 665.787C509.666 668.2 518.35 674.085 525.49 678.91C532.63 683.734 540.639 688.848 543.148 690.392C544.167 691.019 545.679 691.933 547.388 692.965C549.886 694.474 552.802 696.236 555.209 697.725C559.261 700.234 570.647 706.796 580.489 712.295C590.331 717.892 604.419 725.418 611.849 729.181C619.278 732.848 630.182 737.865 635.971 740.374C641.761 742.883 647.454 745.295 648.515 745.681C649.576 746.164 652.374 747.225 654.787 747.997L655.144 748.111C657.487 748.861 660.256 749.748 661.541 750.023C662.661 750.183 664.179 750.608 665.27 750.914C665.495 750.977 665.702 751.035 665.883 751.085C666.944 751.47 666.173 750.699 664.243 749.444C662.313 748.286 657.585 745.102 653.822 742.4C650.059 739.795 642.05 733.909 636.164 729.471C630.182 724.936 620.34 717.12 614.261 712.103C608.182 706.989 598.051 697.822 591.875 691.55C585.603 685.278 580.489 679.682 580.489 679.199C580.489 678.717 581.068 678.234 581.744 678.234C582.323 678.234 584.252 678.813 585.796 679.585C587.34 680.357 597.954 685.375 609.243 690.682C620.436 696.085 630.182 700.427 630.664 700.427C631.147 700.427 634.041 701.489 636.936 702.839C639.831 704.19 642.436 705.059 642.725 704.769C643.015 704.48 642.05 703.708 640.603 702.936C639.059 702.261 636.068 700.138 633.945 698.401C631.726 696.568 626.322 692.515 621.884 689.331C617.445 686.147 607.314 678.331 599.305 671.963C591.393 665.594 576.919 652.568 567.077 643.016C557.332 633.463 543.823 619.375 537.165 611.656C530.507 604.033 521.341 593.13 516.902 587.534C512.464 581.937 505.323 572.481 500.981 566.402C496.736 560.42 491.043 552.315 488.438 548.552C485.929 544.789 481.201 537.648 478.113 532.824C475.026 527.903 472.42 523.368 472.42 522.885C472.42 522.403 475.605 520.377 479.464 518.447C483.227 516.517 490.078 512.464 494.613 509.473C499.148 506.482 505.999 501.079 509.955 497.315C513.815 493.649 518.832 488.149 520.955 485.254C523.174 482.359 527.806 475.605 531.279 470.298C534.849 464.991 541.893 453.509 547.2 444.728C552.411 435.948 558.683 426.202 561.288 423.018C563.796 419.834 568.814 414.334 572.481 410.86C576.051 407.387 582.709 401.501 587.244 397.738C591.779 394.071 602.586 385.58 611.366 379.018C620.147 372.457 628.348 366.089 629.699 364.834L632.112 362.615C627.673 363.677 622.463 365.413 617.638 367.247C612.814 369.08 603.068 372.264 595.928 374.29C588.787 376.413 579.235 378.922 574.7 380.08C570.165 381.141 564.086 382.299 561.191 382.589C558.297 382.878 555.402 383.457 554.919 383.747C554.341 384.132 554.244 383.939 554.726 383.168C555.112 382.589 555.981 382.01 556.656 382.01C557.235 382.01 563.025 379.404 569.393 376.413C575.761 373.326 583.77 368.887 587.244 366.571C590.717 364.255 596.507 359.913 600.27 356.826C604.033 353.835 609.726 348.817 613.007 345.729C616.191 342.545 624.682 333.765 631.726 326.045C638.769 318.326 654.787 301.247 667.234 288.028C679.778 274.809 695.409 259.178 702.067 253.195C708.725 247.309 717.119 240.073 720.883 237.178C724.646 234.187 728.698 230.81 730.049 229.459C731.4 228.204 733.812 226.178 735.356 224.924C738.251 222.801 738.154 222.801 732.944 225.117C730.049 226.371 725.032 228.59 721.847 230.134C718.663 231.582 709.979 235.634 702.549 239.204C695.12 242.774 686.628 246.827 683.734 248.178C681.927 249.021 679.293 250.202 676.794 251.323C675.29 251.998 673.834 252.651 672.637 253.195C669.639 254.558 662.874 257.376 657.261 259.715L657.259 259.716L656.234 260.143C650.445 262.555 642.339 265.836 638.383 267.379C634.427 268.923 624.392 272.493 616.191 275.388C607.989 278.186 598.629 281.177 595.445 282.046C594.655 282.237 593.729 282.464 592.73 282.709C589.699 283.452 585.996 284.36 583.384 284.941C579.91 285.712 574.121 286.774 570.358 287.353C566.595 287.932 561.384 288.221 558.586 288.125C555.884 288.028 553.858 287.642 554.051 287.256C554.244 286.774 555.112 286.484 555.884 286.484C556.656 286.484 558.104 286.098 559.069 285.616C559.937 285.134 563.507 283.976 566.981 283.011C570.454 282.046 577.788 279.634 583.384 277.607C588.98 275.485 599.787 270.757 607.507 266.993C615.226 263.134 624.778 258.02 628.734 255.511C632.69 253.099 639.638 248.564 644.173 245.476C648.708 242.388 656.717 236.31 662.12 232.064C667.523 227.722 674.857 221.643 678.523 218.459C682.19 215.275 690.874 206.977 697.821 200.126C704.769 193.275 720.207 176.679 732.075 163.363C735.564 159.449 739.094 155.493 742.421 151.765C750.412 142.811 757.23 135.172 759.479 132.583C762.663 128.916 769.417 121.583 774.628 116.276C779.742 110.872 784.952 105.276 786.206 103.732L788.426 100.934C784.662 102.092 779.066 104.986 773.47 108.267C768.184 111.275 759.11 116.692 752.672 120.536L751.566 121.197C745.005 125.056 739.505 128.241 739.216 128.241C738.926 128.241 737.093 129.302 735.163 130.46C733.137 131.714 723.681 137.118 714.128 142.425C704.576 147.732 692.225 154.582 686.628 157.574C681.032 160.468 666.944 167.705 655.269 173.494C643.594 179.284 628.831 186.328 622.463 189.029C616.094 191.828 607.024 195.591 602.2 197.424C597.375 199.257 589.849 202.056 585.314 203.503C580.779 205.047 574.121 207.073 570.358 208.134C566.595 209.196 560.612 210.547 556.849 211.222C552.99 211.898 548.455 212.187 546.235 211.705L542.376 211.029C551.349 207.363 557.621 204.95 562.156 203.31C566.691 201.67 576.437 197.617 583.866 194.24C591.296 190.863 603.454 184.687 610.884 180.635C618.313 176.582 629.796 169.731 636.454 165.486C643.111 161.24 652.374 154.968 657.199 151.495C660.688 148.983 665.59 145.31 669.751 142.192C671.345 140.998 672.829 139.886 674.085 138.951C678.62 135.477 686.821 129.013 692.418 124.477C698.014 119.942 712.777 107.592 725.225 96.8813C729.094 93.582 733.439 89.8724 737.853 86.1032C747.64 77.7471 757.769 69.0984 763.821 63.9782C772.601 56.5484 783.891 47.1889 788.908 43.2328C793.926 39.1802 804.636 30.9785 812.548 25.0926C820.557 19.2067 828.565 13.0314 830.399 11.4875C832.232 9.84718 833.583 8.59281 833.294 8.6893C833.004 8.6893 829.337 9.94367 825.092 11.4875ZM532.205 159.477C530.192 160.803 528.204 162.113 526.937 162.977C524.814 164.424 518.06 168.188 511.981 171.468C505.902 174.652 494.613 180.152 486.894 183.626C479.175 187.1 472.613 189.994 472.131 189.994C471.745 189.994 469.14 191.056 466.438 192.31C463.64 193.564 458.912 195.591 456.017 196.749C453.122 197.906 448.008 200.126 444.728 201.67C441.351 203.213 438.456 204.468 438.166 204.468C437.877 204.468 434.789 206.205 431.219 208.231C427.552 210.257 423.403 213.248 421.86 214.696C420.412 216.24 416.167 221.45 412.596 226.178C409.026 231.003 404.009 238.529 401.5 243.064C398.991 247.599 395.614 254.257 394.167 258.02C392.719 261.783 390.404 268.923 389.053 273.941C387.702 278.958 386.158 287.449 385.483 292.756C384.807 298.546 384.614 306.844 384.904 313.502C385.29 319.581 385.965 328.072 386.544 332.317C387.027 336.563 388.184 343.317 389.053 347.273C389.921 351.229 392.72 360.782 395.325 368.501C397.833 376.22 402.079 387.896 404.684 394.553C407.386 401.211 411.053 410.281 412.886 414.816C414.398 418.557 417.092 424.793 419.343 430.003L419.347 430.012C419.559 430.502 419.767 430.983 419.969 431.452C420.222 432.038 420.467 432.606 420.702 433.149C423.21 438.746 426.877 445.886 429 449.07L429.001 449.073C431.124 452.256 433.245 455.439 433.824 456.114C434.5 456.886 436.526 457.079 440.868 456.597C444.149 456.307 449.07 455.053 451.675 453.895C454.377 452.737 458.526 449.746 461.131 447.237C463.64 444.825 467.113 440.483 468.85 437.781C470.684 434.983 473.578 429.386 475.315 425.43C477.148 421.474 483.806 407.773 490.175 395.036C496.543 382.299 505.034 367.054 508.894 361.264C512.85 355.475 518.736 347.37 522.113 343.414C525.393 339.458 530.411 334.054 533.306 331.449C536.2 328.94 540.349 325.659 542.569 324.212C544.788 322.861 546.525 321.317 546.332 320.738C546.235 320.256 543.341 319.484 539.867 319.098C536.49 318.809 532.148 318.037 530.314 317.458C528.481 316.879 525.007 315.238 522.595 313.791C520.183 312.344 516.13 309.449 513.429 307.326C510.823 305.204 505.999 300.476 502.815 296.809C499.631 293.239 495.192 287.546 492.973 284.265C490.753 280.984 489.113 277.993 489.306 277.607C489.596 277.125 492.297 276.353 495.385 275.774C498.376 275.195 504.552 272.879 509.087 270.564C513.622 268.344 521.437 264.002 526.455 260.915C531.472 257.827 539.674 252.906 544.692 249.915C549.709 246.923 553.858 244.222 554.051 243.836C554.244 243.353 549.805 243.064 544.113 243.16C538.323 243.16 531.279 242.967 528.385 242.678C526.921 242.483 525.136 242.263 523.455 242.056L523.451 242.055C521.809 241.853 520.267 241.663 519.218 241.52C517.095 241.231 511.499 239.88 506.674 238.529C501.85 237.274 493.455 233.897 487.955 231.196C482.455 228.397 476.376 224.827 474.447 223.187L470.973 220.196C477.727 212.959 487.28 205.24 496.543 198.389C505.806 191.442 516.42 183.143 520.087 179.959C523.753 176.679 530.411 170.021 534.849 165.196C539.192 160.275 542.858 155.547 542.858 154.775C542.858 154.003 542.569 153.328 542.086 153.328C541.7 153.328 538.999 154.872 536.104 156.898C534.937 157.676 533.565 158.58 532.205 159.477ZM193.853 181.021C192.309 182.468 187.195 190.187 182.467 198.099C177.643 206.012 171.178 215.564 167.994 219.327C164.713 223.09 160.082 227.529 157.573 229.073C155.064 230.617 153.038 232.257 153.038 232.739C153.038 233.125 153.617 233.704 154.196 233.994C154.871 234.283 158.441 233.608 162.204 232.45C165.968 231.292 171.564 229.073 174.748 227.529C177.932 225.985 183.143 222.415 186.327 219.713C189.511 217.012 193.371 213.248 194.818 211.319C196.362 209.389 198.774 205.915 200.125 203.503C201.958 200.319 202.73 197.424 202.923 192.889C203.213 187.679 202.923 185.942 201.09 182.854C199.836 180.731 198.388 178.898 197.713 178.608C197.134 178.415 195.301 179.477 193.853 181.021Z" fill="black"/>
</svg>
